<?xml version="1.0" encoding="UTF-8"?>
<svg width="243px" height="64px" viewBox="0 0 243 64" version="1.1" xmlns="http://www.w3.org/2000/svg" xmlns:xlink="http://www.w3.org/1999/xlink">
    <!-- Generator: Sketch 53.2 (72643) - https://sketchapp.com -->
    <title>Logo</title>
    <desc>Created with Sketch.</desc>
    <defs>
        <polygon id="path-1" points="0 0.771546154 242.45476 0.771546154 242.45476 37.0995462 0 37.0995462"></polygon>
    </defs>
    <g id="Logo" stroke="none" stroke-width="1" fill="none" fill-rule="evenodd">
        <g id="Group-12">
            <path d="M1,63.8356737 L2.04841305,63.8356737 L2.04841305,60.077084 L4.67949895,60.077084 L4.70535023,60.077084 L7.40106432,63.8356737 L8.68931981,63.8356737 L5.83562566,59.8843741 C7.29478684,59.6080072 8.35612553,58.6698536 8.35612553,57.0669256 L8.35612553,57.038542 C8.35612553,56.2781595 8.09043181,55.6014341 7.63947058,55.1338512 C7.0549444,54.5243502 6.13866012,54.1658201 4.99689522,54.1658201 L1,54.1658201 L1,63.8356737 Z M2.04841305,59.0971019 L2.04841305,55.1741858 L4.91646902,55.1741858 C6.41727948,55.1741858 7.29478684,55.8942336 7.29478684,57.0803705 L7.29478684,57.1087541 C7.29478684,58.3501643 6.29951253,59.0971019 4.90497956,59.0971019 L2.04841305,59.0971019 Z M16.6069926,63.8356737 L23.3929538,63.8356737 L23.3929538,62.8407529 L17.6568418,62.8407529 L17.6568418,59.4556319 L22.7280014,59.4556319 L22.7280014,58.462205 L17.6568418,58.462205 L17.6568418,55.1592471 L23.3268894,55.1592471 L23.3268894,54.1658201 L16.6069926,54.1658201 L16.6069926,63.8356737 Z M30.7117386,63.8356737 L31.7888752,63.8356737 L32.890427,61.2796534 L37.9500971,61.2796534 L39.0372871,63.8356737 L40.1675625,63.8356737 L35.9308249,54.095608 L34.9484762,54.095608 L30.7117386,63.8356737 Z M33.3026113,60.2996713 L35.4267249,55.3668957 L37.5379128,60.2996713 L33.3026113,60.2996713 Z M48.0048091,63.8356737 L54.2866703,63.8356737 L54.2866703,62.827308 L49.0546584,62.827308 L49.0546584,54.1658201 L48.0048091,54.1658201 L48.0048091,63.8356737 Z M72.2174058,63.8356737 L79.0048032,63.8356737 L79.0048032,62.8407529 L73.267255,62.8407529 L73.267255,59.4556319 L78.341287,59.4556319 L78.341287,58.462205 L73.267255,58.462205 L73.267255,55.1592471 L78.9387388,55.1592471 L78.9387388,54.1658201 L72.2174058,54.1658201 L72.2174058,63.8356737 Z M90.3075575,63.9746041 C92.1530517,63.9746041 93.4815203,62.8945324 93.4815203,61.2393188 L93.4815203,61.2094413 C93.4815203,59.7319988 92.5264591,58.9462205 90.4540481,58.4756498 C88.4089246,58.0185241 87.9306759,57.5091126 87.9306759,56.5963549 L87.9306759,56.5709591 C87.9306759,55.7000299 88.7004696,55.0083657 89.9082989,55.0083657 C90.8647963,55.0083657 91.729378,55.3265611 92.5925235,56.0585599 L93.2043372,55.2145205 C92.2607654,54.4272483 91.2913424,54.0283836 89.9355863,54.0283836 C88.1690822,54.0283836 86.8808267,55.1472961 86.8808267,56.6650732 L86.8808267,56.6949507 C86.8808267,58.2814461 87.8646115,59.0014939 90.0016507,59.4825217 C91.9548586,59.9112638 92.4201816,60.423663 92.4201816,61.3214819 L92.4201816,61.3483717 C92.4201816,62.3029579 91.595813,62.994622 90.3463345,62.994622 C89.058079,62.994622 88.1288691,62.5374963 87.159446,61.6262324 L86.5088555,62.4269495 C87.6247691,63.4636988 88.8340345,63.9746041 90.3075575,63.9746041 L90.3075575,63.9746041 Z M103.882352,63.8356737 L104.945127,63.8356737 L104.945127,55.1741858 L108.065951,55.1741858 L108.065951,54.1658201 L100.760092,54.1658201 L100.760092,55.1741858 L103.882352,55.1741858 L103.882352,63.8356737 Z M114.041906,63.8356737 L115.117606,63.8356737 L116.220594,61.2796534 L121.278828,61.2796534 L122.36889,63.8356737 L123.496293,63.8356737 L119.260992,54.095608 L118.277207,54.095608 L114.041906,63.8356737 Z M116.631342,60.2996713 L118.756892,55.3668957 L120.86808,60.2996713 L116.631342,60.2996713 Z M132.595944,63.8356737 L133.657283,63.8356737 L133.657283,55.1741858 L136.779543,55.1741858 L136.779543,54.1658201 L129.47512,54.1658201 L129.47512,55.1741858 L132.595944,55.1741858 L132.595944,63.8356737 Z M144.748918,63.8356737 L151.536316,63.8356737 L151.536316,62.8407529 L145.798768,62.8407529 L145.798768,59.4556319 L150.871363,59.4556319 L150.871363,58.462205 L145.798768,58.462205 L145.798768,55.1592471 L151.470251,55.1592471 L151.470251,54.1658201 L144.748918,54.1658201 L144.748918,63.8356737 Z M173.955121,64 C175.521996,64 176.824613,63.3232746 177.686322,62.5225575 L177.686322,58.6698536 L173.848843,58.6698536 L173.848843,59.6498357 L176.678122,59.6498357 L176.678122,62.0534807 C176.040457,62.5927696 175.058109,63.0200179 173.995334,63.0200179 C171.737655,63.0200179 170.317271,61.308037 170.317271,59.0014939 L170.317271,58.9716164 C170.317271,56.8189423 171.79223,55.0083657 173.848843,55.0083657 C175.164386,55.0083657 175.961467,55.4639976 176.678122,56.1138333 L177.354564,55.2832387 C176.425354,54.4675829 175.455931,54 173.889056,54 C171.09999,54 169.228645,56.3483717 169.228645,59.0014939 L169.228645,59.0268898 C169.228645,61.7920526 171.033926,64 173.955121,64 L173.955121,64 Z M186.054956,63.8356737 L187.104806,63.8356737 L187.104806,60.077084 L189.734455,60.077084 L189.763179,60.077084 L192.457457,63.8356737 L193.745712,63.8356737 L190.890582,59.8843741 C192.351179,59.6080072 193.413954,58.6698536 193.413954,57.0669256 L193.413954,57.038542 C193.413954,56.2781595 193.14826,55.6014341 192.695863,55.1338512 C192.111337,54.5243502 191.195053,54.1658201 190.053288,54.1658201 L186.054956,54.1658201 L186.054956,63.8356737 Z M187.104806,59.0971019 L187.104806,55.1741858 L189.974298,55.1741858 C191.473672,55.1741858 192.351179,55.8942336 192.351179,57.0803705 L192.351179,57.1087541 C192.351179,58.3501643 191.354469,59.0971019 189.959936,59.0971019 L187.104806,59.0971019 Z M205.977677,64 C208.806956,64 210.732876,61.6665671 210.732876,59.0014939 L210.732876,58.9716164 C210.732876,56.308037 208.834243,54 206.0064,54 C203.175685,54 201.251201,56.3349268 201.251201,59.0014939 L201.251201,59.0268898 C201.251201,61.6934568 203.149834,64 205.977677,64 L205.977677,64 Z M206.0064,62.994622 C203.880851,62.994622 202.339827,61.1959964 202.339827,59.0014939 L202.339827,58.9716164 C202.339827,56.77562 203.853563,55.0083657 205.977677,55.0083657 C208.104663,55.0083657 209.64425,56.8040036 209.64425,59.0014939 L209.64425,59.0268898 C209.64425,61.22438 208.129078,62.994622 206.0064,62.994622 L206.0064,62.994622 Z M222.674732,63.988049 C224.998474,63.988049 226.550987,62.5225575 226.550987,59.7051091 L226.550987,54.1658201 L225.502574,54.1658201 L225.502574,59.7872722 C225.502574,61.9011055 224.415384,62.9781894 222.700583,62.9781894 C220.921153,62.9781894 219.858378,61.8054975 219.858378,59.7185539 L219.858378,54.1658201 L218.809965,54.1658201 L218.809965,59.7872722 C218.809965,62.5225575 220.37684,63.988049 222.674732,63.988049 L222.674732,63.988049 Z M235.038825,63.8356737 L236.09011,63.8356737 L236.09011,60.423663 L238.347789,60.423663 C240.325411,60.423663 242,59.346579 242,57.2596355 L242,57.2327457 C242,55.3265611 240.618393,54.1658201 238.52013,54.1658201 L235.038825,54.1658201 L235.038825,63.8356737 Z M236.09011,59.4287422 L236.09011,55.1741858 L238.44114,55.1741858 C239.940515,55.1741858 240.935789,55.8942336 240.935789,57.2745742 L240.935789,57.301464 C240.935789,58.5727517 239.927589,59.4287422 238.386565,59.4287422 L236.09011,59.4287422 Z" id="Fill-1" fill="#FEFEFE"></path>
            <g id="Group-5">
                <mask id="mask-2" fill="white">
                    <use xlink:href="#path-1"></use>
                </mask>
                <g id="Clip-4"></g>
                <path d="M27.9360852,11.4320077 L28.8635112,10.2467 C30.6924817,7.91116154 29.9548544,4.48385385 27.3623751,3.0837 C26.8274876,2.79577692 26.2739077,2.52977692 25.6987598,2.28716154 C23.3118959,1.27577692 20.8761444,0.771546154 18.3915053,0.771546154 C14.9765645,0.771546154 11.8707657,1.5637 9.07123314,3.14654615 C6.27026272,4.72939231 4.0602568,6.9027 2.43402604,9.66500769 C0.810671006,12.4258538 -0.000287573964,15.4921615 -0.000287573964,18.8595462 C-0.000287573964,22.2269308 0.794854438,25.3005462 2.38513846,28.0803923 C3.97686036,30.8587769 6.16098462,33.0583923 8.94757633,34.6733923 C11.7298544,36.2927769 14.7953929,37.0995462 18.1427538,37.0995462 C20.6288308,37.0995462 23.0803988,36.5514692 25.4988959,35.4567769 C26.3975645,35.0504692 27.2545349,34.5900846 28.071245,34.0741615 C30.2510556,32.6959308 30.6896059,29.6573923 28.9756651,27.7164692 L27.9360852,26.5384692 C26.6448781,27.8523923 25.1581207,28.8798538 23.4858781,29.6223154 C21.8121976,30.3618538 20.1471444,30.7330846 18.4907183,30.7330846 C15.8004639,30.7330846 13.3934698,29.9058538 11.2754876,28.2513923 C10.4343337,27.5937 9.68664142,26.8088538 9.06691953,25.9319308 C7.56290769,23.7995462 6.80946391,21.4099308 6.80946391,18.7587 C6.80946391,16.5693154 7.3242213,14.5567769 8.34942249,12.7210846 C9.37606154,10.8839308 10.7866118,9.44577692 12.5767598,8.40077692 C14.3654698,7.35723846 16.3367893,6.83400769 18.4907183,6.83400769 C20.2132864,6.83400769 21.9128485,7.23739231 23.5850911,8.04854615 C25.2587716,8.85531538 26.7081444,9.98508462 27.9360852,11.4320077 L27.9360852,11.4320077 Z M58.9494994,0.771546154 C55.5029254,0.771546154 52.3626178,1.5637 49.5300142,3.14654615 C46.6959728,4.72939231 44.4687124,6.9027 42.8439195,9.66500769 C41.2191266,12.4258538 40.408168,15.4921615 40.408168,18.8595462 C40.408168,22.2269308 41.2191266,25.3005462 42.8439195,28.0803923 C44.4687124,30.8587769 46.6959728,33.0583923 49.5300142,34.6733923 C52.3626178,36.2927769 55.5029254,37.0995462 58.9494994,37.0995462 C62.3960734,37.0995462 65.5349432,36.2927769 68.3689846,34.6733923 C71.203026,33.0583923 73.4288485,30.8587769 75.0536414,28.0803923 C76.6769964,25.3005462 77.4908308,22.2269308 77.4908308,18.8595462 C77.4908308,15.4921615 76.6769964,12.4258538 75.0536414,9.66500769 C73.4288485,6.9027 71.203026,4.72939231 68.3689846,3.14654615 C65.5349432,1.5637 62.3960734,0.771546154 58.9494994,0.771546154 L58.9494994,0.771546154 Z M59.0487124,6.83400769 C61.1364994,6.83400769 63.0747479,7.36454615 64.863458,8.42562308 C66.6536059,9.4867 68.0699077,10.9365462 69.1123633,12.7707769 C70.1591325,14.6079308 70.6810793,16.6350846 70.6810793,18.8595462 C70.6810793,21.0825462 70.1591325,23.1213923 69.1123633,24.9746231 C68.0699077,26.8263923 66.6536059,28.2893923 64.863458,29.3694692 C63.0747479,30.4466231 61.1364994,30.9859308 59.0487124,30.9859308 C56.9264166,30.9859308 54.9622864,30.4466231 53.1591976,29.3694692 C51.3503574,28.2893923 49.9096118,26.8263923 48.8326473,24.9746231 C47.7556828,23.1213923 47.2179195,21.0825462 47.2179195,18.8595462 C47.2179195,16.0607 48.0561976,13.5731615 49.7356296,11.3823154 C50.3970497,10.5200077 51.1821266,9.75708462 52.0592272,9.12423846 C54.1743337,7.59839231 56.5036828,6.83400769 59.0487124,6.83400769 L59.0487124,6.83400769 Z M119.240819,36.5953154 L111.584162,24.8708538 C113.837304,23.8945462 115.554121,22.4300846 116.730298,20.4745462 C117.906476,18.5233923 118.493127,16.1644692 118.493127,13.4036231 C118.493127,9.53054615 117.268062,6.53000769 114.816493,4.40931538 C112.363488,2.28716154 108.883843,1.22608462 104.377559,1.22608462 L89.8637006,1.22608462 L89.8637006,36.5953154 L91.428103,36.5953154 C94.2420142,36.5953154 96.5239136,34.2743923 96.5239136,31.4127 L96.5239136,26.1847769 L104.377559,26.1847769 C104.939766,26.1847769 105.35531,26.1687 105.619878,26.1350846 L111.635925,36.5953154 L119.240819,36.5953154 Z M96.5239136,7.13654615 L104.377559,7.13654615 C106.896707,7.13654615 108.817701,7.67585385 110.144854,8.75446923 C111.469133,9.83308462 112.133428,11.4510077 112.133428,13.6038538 C112.133428,15.7947 111.469133,17.4462385 110.144854,18.5555462 C108.817701,19.6677769 106.896707,20.2217 104.377559,20.2217 L96.5239136,20.2217 L96.5239136,7.13654615 Z M146.573286,1.22608462 L132.309618,1.22608462 L132.309618,36.5953154 L134.571387,36.5953154 C136.999949,36.5953154 138.968393,34.5930077 138.968393,32.1244692 L138.968393,26.1847769 L146.573286,26.1847769 C150.950162,26.1847769 154.337783,25.0652385 156.740464,22.8247 C159.141707,20.5870846 160.342328,17.4462385 160.342328,13.4036231 C160.342328,9.53054615 159.141707,6.53000769 156.740464,4.40931538 C154.337783,2.28716154 150.950162,1.22608462 146.573286,1.22608462 L146.573286,1.22608462 Z M146.228198,20.2217 L138.968393,20.2217 L138.968393,7.13654615 L146.228198,7.13654615 C148.74447,7.13654615 150.674091,7.67585385 152.017062,8.75446923 C153.358594,9.83308462 154.030079,11.4510077 154.030079,13.6038538 C154.030079,15.7947 153.358594,17.4462385 152.017062,18.5555462 C150.674091,19.6677769 148.74447,20.2217 146.228198,20.2217 L146.228198,20.2217 Z M235.992973,25.6308538 L218.04692,1.22608462 L211.734671,1.22608462 L211.734671,36.5953154 L218.245346,36.5953154 L218.245346,12.2387769 L236.139636,36.5953154 L238.187162,36.5953154 C240.543831,36.5953154 242.45476,34.6529308 242.45476,32.2574692 L242.45476,4.29823846 C242.45476,2.60139231 241.101724,1.22608462 239.432357,1.22608462 L235.992973,1.22608462 L235.992973,25.6308538 Z" id="Fill-3" fill="#FEFEFE" mask="url(#mask-2)"></path>
            </g>
            <path d="M175.5534,29 L196,29 L196,30.2091988 C196,32.8560831 193.962953,35 191.448009,35 L171,35 L171,33.7922849 C171,31.1468843 173.038457,29 175.5534,29" id="Fill-6" fill="#FEFEFE"></path>
            <path d="M176.553657,0 L197,0 L197,1.20771513 C197,3.85608309 194.962838,6 192.449163,6 L172,6 L172,4.79228487 C172,2.14540059 174.038572,0 176.553657,0" id="Fill-8" fill="#FEFEFE"></path>
            <path d="M176.553657,14 L197,14 L197,15.5875371 C197,18.0237389 195.123555,20 192.808662,20 L172,20 L172,18.7922849 C172,16.1454006 174.038572,14 176.553657,14" id="Fill-10" fill="#FEFEFE"></path>
        </g>
    </g>
</svg>